<?xml version="1.0" encoding="UTF-8"?>
<!DOCTYPE svg PUBLIC "-//W3C//DTD SVG 1.1//EN" "http://www.w3.org/Graphics/SVG/1.1/DTD/svg11.dtd">
<!-- Creator: CorelDRAW 2020 (64 Bit) -->
<svg xmlns="http://www.w3.org/2000/svg" xml:space="preserve" width="124mm" height="25mm" version="1.1" style="shape-rendering:geometricPrecision; text-rendering:geometricPrecision; image-rendering:optimizeQuality; fill-rule:evenodd; clip-rule:evenodd"
viewBox="0 0 12400 2500"
 xmlns:xlink="http://www.w3.org/1999/xlink"
 xmlns:xodm="http://www.corel.com/coreldraw/odm/2003">
 <defs>
  <style type="text/css">
   <![CDATA[
    .fil10 {fill:#EF4D3B}
    .fil1 {fill:white}
    .fil0 {fill:white}
    .fil8 {fill:#FEFEFE;fill-rule:nonzero}
    .fil9 {fill:#F3A133;fill-rule:nonzero}
    .fil4 {fill:#2C5880;fill-rule:nonzero}
    .fil2 {fill:white;fill-rule:nonzero}
    .fil3 {fill:url(#id0)}
    .fil5 {fill:url(#id1)}
    .fil11 {fill:url(#id2)}
    .fil6 {fill:url(#id3)}
    .fil7 {fill:url(#id4)}
    .fil12 {fill:url(#id5);fill-rule:nonzero}
   ]]>
  </style>
  <linearGradient id="id0" gradientUnits="userSpaceOnUse" x1="2273.72" y1="1874.44" x2="1365.43" y2="1266.52">
   <stop offset="0" style="stop-opacity:1; stop-color:#E33439"/>
   <stop offset="0.278431" style="stop-opacity:1; stop-color:#E33439"/>
   <stop offset="0.709804" style="stop-opacity:1; stop-color:#EF4D3B"/>
   <stop offset="1" style="stop-opacity:1; stop-color:#EF4D3B"/>
  </linearGradient>
  <linearGradient id="id1" gradientUnits="userSpaceOnUse" x1="1177.53" y1="1192.56" x2="2567.23" y2="480.22">
   <stop offset="0" style="stop-opacity:1; stop-color:#FBE578"/>
   <stop offset="0.219608" style="stop-opacity:1; stop-color:#FBE578"/>
   <stop offset="0.580392" style="stop-opacity:1; stop-color:#F4A832"/>
   <stop offset="1" style="stop-opacity:1; stop-color:#ED7F36"/>
  </linearGradient>
  <linearGradient id="id2" gradientUnits="userSpaceOnUse" xlink:href="#id0" x1="2349.73" y1="2153.14" x2="3750.63" y2="2180.34">
  </linearGradient>
  <linearGradient id="id3" gradientUnits="userSpaceOnUse" x1="1055.64" y1="970.34" x2="42.71" y2="20.79">
   <stop offset="0" style="stop-opacity:1; stop-color:#CEDC85"/>
   <stop offset="0.501961" style="stop-opacity:1; stop-color:#82BC4C"/>
   <stop offset="1" style="stop-opacity:1; stop-color:#3E904E"/>
  </linearGradient>
  <linearGradient id="id4" gradientUnits="userSpaceOnUse" x1="573.25" y1="1117.57" x2="492.24" y2="2523.75">
   <stop offset="0" style="stop-opacity:1; stop-color:#78C9E6"/>
   <stop offset="0.521569" style="stop-opacity:1; stop-color:#3E9BD5"/>
   <stop offset="0.929412" style="stop-opacity:1; stop-color:#2C5880"/>
   <stop offset="1" style="stop-opacity:1; stop-color:#2C5880"/>
  </linearGradient>
  <radialGradient id="id5" gradientUnits="userSpaceOnUse" gradientTransform="matrix(1.7981 -0 -0 2.00004 -1657 -1019)" cx="2075.77" cy="1018.86" r="406.59" fx="2075.77" fy="1018.86">
   <stop offset="0" style="stop-opacity:1; stop-color:white"/>
   <stop offset="0.321569" style="stop-opacity:1; stop-color:#95ABBF"/>
   <stop offset="1" style="stop-opacity:1; stop-color:#2C5880"/>
  </radialGradient>
 </defs>
 <g id="Camada_x0020_1">
  <metadata id="CorelCorpID_0Corel-Layer"/>
  <path class="fil0" d="M2216.31 530.7c357.19,0 714.38,0 1071.57,0 0,138.91 0,277.82 0,416.73 0,44.1 1587.51,-4.42 1587.51,39.68 0,106.6 339.42,736.8 112.88,975.03 -325.88,342.7 -1296.03,273.99 -1686.23,41.03 -357.19,0 -728.54,-143.61 -1085.73,-143.61 0,-442.95 0,-885.91 0,-1328.86z"/>
  <ellipse class="fil0" cx="9125.27" cy="1311.24" rx="1359.3" ry="363.8"/>
  <g id="_2165142636304">
   <path class="fil1" d="M3576.81 2426.79l-1181.76 0c-110.34,0 -223.09,-61.98 -256.01,-166.45 -59.96,37.03 -130.2,58.71 -205.17,59.66l-8.49 0.09 -449 0c-115.53,0 -220.65,-48.66 -294.86,-127.27 -73.75,76.76 -177.45,124.55 -292.28,124.55l-448.99 0c-223.77,0 -405.27,-181.49 -405.27,-405.26l0 -448.98c0,-114.06 47.16,-217.14 123.03,-290.8 -75.9,-73.66 -123.07,-176.76 -123.07,-290.85l0 -449c0,-223.77 181.45,-405.27 405.23,-405.27l448.98 0c118.06,0 224.35,50.52 298.42,131.11 73.93,-78.57 178.86,-127.65 295.21,-127.65l448.99 0c176.01,0 330.18,113.46 384.57,277.22 136.47,-76.06 295.99,-112.97 451.9,-112.97 257.92,0 499.56,73.08 670.4,276.13 52.73,62.67 95.44,133.88 128.88,209.93 44.99,-39.42 104.53,-63.15 177,-63.15 47.71,0 83.11,12.54 128.01,20.77 4.19,0.77 9.42,1.72 13.7,1.72 13.6,0 33.6,-5.12 46.96,-7.96 37.82,-8.05 73.83,-14.53 112.76,-14.53 49.97,0 97.43,13.54 136.36,44.23 85.24,-50.76 183.39,-77.98 291.04,-77.98 202.25,0 372,73.65 491.05,240.63 101.88,142.9 147.09,336.19 147.09,509.99 0,60.68 -4.58,121.24 -13.95,180.29 8.6,-1.93 17.48,-3.44 26.63,-4.5l0 -702.51c-140.31,-16.3 -215.95,-136.85 -215.95,-276.35 0,-168.15 102.94,-305.21 280.47,-305.21 46.99,0 89.44,9.09 135.17,17.19 14.32,2.54 30.21,5.3 44.78,5.3 24.28,0 50.65,-5.02 74.55,-9.1 41.25,-7.05 81.37,-13.39 123.41,-13.39 155.28,0 210.73,122.7 210.73,257.97l0 127.2c57.36,-18.55 120.82,-27.51 198.67,-27.51 223.24,0 391.81,105.42 466.03,281.46 17.65,-118.79 90.67,-211.53 206.21,-239.22 -23.8,-48.2 -37.16,-102.48 -37.16,-159.92 0,-199.77 161.68,-361.46 361.45,-361.46 199.77,0 361.45,161.69 361.45,361.46 0,81.39 -26.84,156.45 -72.16,216.84 49.55,53.69 60.91,126.31 60.91,199.31l0 235.52c87.02,-328.08 357.45,-533.99 738.54,-533.99 163.57,0 334.74,48.75 455.71,148.72 35.9,-52.35 88.67,-90.39 155.79,-106.48 -23.8,-48.2 -37.16,-102.48 -37.16,-159.92 0,-199.77 161.68,-361.46 361.45,-361.46 199.77,0 361.45,161.69 361.45,361.46 0,81.39 -26.84,156.45 -72.16,216.84 14.46,15.67 25.66,32.94 34.29,51.37 38.97,-67.46 101.73,-116.78 189.3,-116.78 64.15,0 123.04,22.49 184.45,22.49 22.24,0 47.01,-7.22 68.7,-11.84 30.34,-6.47 59.91,-10.65 91.02,-10.65 55.78,0 107.71,13.89 149.09,52.76 91.79,-54.88 195.99,-86.51 309.8,-86.51 312.85,0 532.41,241.88 532.41,552.66l0 270.04c27.23,-61.93 68.23,-117.29 125.82,-163.03 -61.39,-60.71 -99.64,-144.18 -99.64,-239.73 0,-16.93 1.2,-33.86 3.63,-50.62 17.97,-124.2 98.49,-219.2 206.02,-278.76 127.64,-70.7 286.93,-90.56 430.74,-90.56 142.18,0 313.14,15.98 438.4,87.01 185.63,105.26 219.98,278.24 219.98,476.9l0 380.32c122.89,27.1 204.7,139.68 204.7,269.78 0,134.6 -75.75,228.17 -179.98,278.8 23.31,33.74 37.22,74.27 37.22,120.13 0,139.64 -128.96,229.77 -259.48,229.77l-7535.17 0c-44.98,34.35 -102.63,54.42 -171.25,54.42 -95.02,0 -186.79,-22.49 -278.94,-22.49 -81.8,0 -163.37,22.49 -247.44,22.49 -65.67,0 -120.46,-20.35 -163.21,-54.42zm-30.32 -459.53c34.73,-35.58 80.42,-59.95 135.76,-67.22l0 -700.92c-6.84,-0.85 -13.52,-1.95 -20.05,-3.3 -6.33,211.78 -62.03,444.51 -189.2,613.67 -46.73,62.16 -102.43,114.64 -164.35,157.77l237.84 0zm4963.89 0c-0.23,-0.36 -0.45,-0.72 -0.67,-1.08 -0.45,0.36 -0.9,0.72 -1.35,1.08l2.02 0zm-946.94 0c-18.43,-14.61 -36.29,-30.35 -53.5,-47.27 -6.61,16.67 -14.54,32.48 -23.73,47.27l77.23 0zm-2610.14 0c-9.42,-16.78 -17.37,-34.65 -23.84,-53.2 -15.53,18.77 -32.09,36.54 -49.72,53.2l73.56 0zm4393.96 -836.36l0 380.15c24.82,3.31 47.58,9.92 68.2,19.34 21.24,-9.7 44.75,-16.42 70.45,-19.63l0 -311.64c-57.42,-7.16 -103.89,-31.88 -138.65,-68.22zm-684.63 66.19c-16.87,49 -44.42,92.23 -79.85,127.76 39.08,28.02 71.1,64.68 93.32,107.95l0 -233.68c-4.56,-0.57 -9.05,-1.25 -13.47,-2.03zm-2178.96 -103.66l0 417.33c31.27,3.9 59.3,13.01 83.95,26.36 24.65,-13.35 52.68,-22.46 83.95,-26.36l0 -311.64c-75.44,-9.41 -131.99,-49.13 -167.9,-105.69zm-678.63 440.68c8.02,-4.65 16.5,-8.74 25.48,-12.2 -0.01,-1.71 -0.02,-3.38 -0.02,-5.01l0 -254.19c0,-14.56 -0.1,-48.76 -3.33,-72.63 -41.98,2.3 -49.84,59.92 -49.84,92.88l0 233.94c0,1.34 0,2.73 -0.01,4.16 9.81,3.64 19.05,8.01 27.72,13.05zm2262.27 -16.96c8.7,-12.16 20.26,-39.74 24.8,-50.34 13.23,-30.88 27.37,-58.06 43.07,-81.67 -69.26,-38.75 -120.74,-101.38 -138.47,-184.82 -29.05,36.66 -32.88,110.38 -32.88,143.37 0,39.65 8.47,107.88 31.05,141.74 11.84,17.76 40.91,32.19 61.89,32.19 2.68,0 6.94,-0.05 10.54,-0.47zm2122.58 -315.5c-42.87,5.84 -50.81,64.77 -50.81,99.3l0 215.95c0,0.46 0,0.93 0,1.41 9.91,3.2 19.28,7.15 28.13,11.77 7.93,-4.07 16.28,-7.62 25.04,-10.59 -0.01,-0.88 -0.01,-1.74 -0.01,-2.59l0 -281.18c0,-7.39 -0.46,-22.18 -2.35,-34.07zm-7408.15 295.72c23.98,0 53.17,-2.93 73.71,-16.65 69.82,-46.61 75.47,-238.92 75.47,-310.24 0,-71.88 -5.32,-293.54 -80.16,-338.31 -18.31,-10.95 -43.73,-13.32 -64.53,-13.32 -19.4,0 -41.36,1.63 -59.71,8.43 -89.99,33.32 -93.97,258.16 -93.97,329.71 0,70.06 4.61,278.74 74.44,324.41 20.45,13.38 51.1,15.97 74.75,15.97zm1593.12 -311.84c-30.96,20.24 -39.44,130.14 -39.44,160.41 0,26.79 8.56,146.53 41.2,160.43 58.7,0 63.7,-125.13 63.7,-160.43 0,-37.32 -5.07,-159.22 -65.46,-160.41z"/>
  </g>
  <g id="_2165142637696">
   <path class="fil0" d="M1926.2 2170.08l0.24 0 5.53 -0.07c130.64,-2.78 237.09,-103.69 248.67,-231.98l-0.91 -1.53c0.6,-7.14 0.92,-14.37 0.92,-21.67l0 -0.61c-177.93,-166.41 -262.59,-418.93 -272.46,-703.68l-430.74 0 -1.07 0c-30.6,0 -59.94,5.39 -87.12,15.26l0.01 0.39c-97.53,35.9 -167.09,129.63 -167.09,239.62l0 449.02c0,7.3 0.32,14.53 0.92,21.67l-0.92 1.54c11.73,130.09 121.05,232.05 254.2,232.05l449 0 0.82 -0.01z"/>
   <path class="fil2" d="M2768.24 344.92c-209.2,0 -431.9,78.74 -560.12,249.7 -114.73,152.96 -157.47,371.16 -157.47,557.87 0,197.95 49.49,440.9 177.71,593.86 141.72,168.71 348.67,224.95 560.12,224.95 213.7,0 434.15,-78.73 564.62,-251.94 114.73,-152.97 159.72,-375.67 159.72,-564.62 0,-202.46 -56.24,-429.65 -188.96,-587.12 -141.72,-168.71 -344.17,-222.7 -555.62,-222.7zm13.5 1302.45c-204.71,0 -299.19,-137.22 -299.19,-490.38 0,-402.66 139.47,-488.14 303.68,-488.14 195.71,0 294.69,139.47 294.69,501.63 0,330.68 -94.48,476.89 -299.18,476.89z"/>
   <path id="1" class="fil2" d="M3832.25 1906.06c0,125.97 -13.5,157.47 -40.49,157.47 -11.25,0 -22.5,-4.5 -33.75,-9 -13.49,-2.25 -24.74,-6.75 -40.49,-6.75 -65.23,0 -98.97,53.99 -98.97,128.22 0,85.48 38.24,155.21 121.47,155.21 76.48,0 161.96,-22.49 247.44,-22.49 92.23,0 182.21,22.49 278.94,22.49 94.47,0 132.72,-69.73 132.72,-155.21 0,-67.48 -24.75,-128.22 -98.98,-128.22 -13.5,0 -26.99,4.5 -40.49,6.75 -11.25,4.5 -22.5,9 -33.74,9 -29.25,0 -40.49,-29.25 -40.49,-157.47l0 -71.98c89.97,67.48 164.21,137.22 285.68,137.22 355.42,0 490.39,-323.93 490.39,-636.6 0,-141.72 -36,-305.93 -119.23,-422.91 -89.98,-125.97 -213.7,-177.71 -368.91,-177.71 -150.72,0 -269.94,69.74 -353.17,188.96l-4.5 0 0 -38.24c0,-76.48 -9,-116.97 -69.73,-116.97 -56.24,0 -107.98,22.49 -159.72,22.49 -49.48,0 -98.97,-22.49 -141.71,-22.49 -87.73,0 -125.97,69.73 -125.97,155.21 0,67.48 24.74,128.22 98.97,128.22 29.25,0 51.74,-15.75 74.24,-15.75 26.99,0 40.49,29.25 40.49,157.47l0 713.08zm544.37 -249.69c-101.23,0 -191.2,-96.73 -191.2,-310.43 0,-195.7 78.73,-310.43 188.95,-310.43 112.48,0 215.95,89.98 215.95,310.43 0,224.95 -105.72,310.43 -213.7,310.43z"/>
   <path id="2" class="fil2" d="M5274.17 1516.9c0,121.47 -11.25,157.47 -42.74,157.47 -11.25,0 -24.75,-4.5 -36,-9 -11.24,-2.25 -24.74,-6.75 -38.24,-6.75 -74.23,0 -98.97,60.74 -98.97,128.22 0,85.48 38.24,155.21 98.97,155.21 76.49,0 161.97,-22.49 247.45,-22.49 92.22,0 182.2,22.49 278.93,22.49 60.74,0 85.48,-69.73 85.48,-155.21 0,-67.48 -15.74,-128.22 -65.23,-128.22 -9,0 -15.75,4.5 -22.5,6.75 -6.75,4.5 -15.74,9 -26.99,9 -18,0 -27,-20.25 -27,-157.47l0 -233.94c0,-132.72 74.24,-242.95 202.46,-242.95 130.47,0 150.71,80.98 150.71,222.7l0 254.19c0,114.73 2.25,157.47 -24.74,157.47 -6.75,0 -15.75,-4.5 -24.75,-9 -6.74,-2.25 -15.74,-6.75 -24.74,-6.75 -49.49,0 -65.23,60.74 -65.23,128.22 0,85.48 24.74,155.21 85.48,155.21 71.98,0 150.71,-22.49 229.44,-22.49 85.48,0 168.71,22.49 258.69,22.49 94.48,0 132.72,-69.73 132.72,-155.21 0,-67.48 -24.74,-128.22 -98.97,-128.22 -13.5,0 -24.75,4.5 -38.25,6.75 -11.24,4.5 -22.49,9 -35.99,9 -26.99,0 -40.49,-20.25 -40.49,-157.47l0 -431.9c0,-202.45 -116.97,-350.92 -357.67,-350.92 -159.71,0 -231.69,44.99 -348.67,143.97l0 -393.66c0,-87.73 -20.24,-107.97 -60.73,-107.97 -65.24,0 -130.47,22.49 -197.96,22.49 -60.73,0 -121.47,-22.49 -179.95,-22.49 -92.23,0 -130.47,69.73 -130.47,155.21 0,67.49 24.74,128.22 98.97,128.22 29.25,0 51.74,-15.75 74.24,-15.75 35.99,0 42.74,40.5 42.74,157.47l0 715.33z"/>
   <path id="3" class="fil2" d="M6801.57 1516.9c0,112.48 -9,157.47 -40.49,157.47 -11.25,0 -22.5,-6.75 -33.75,-9 -13.49,-2.25 -24.74,-6.75 -40.49,-6.75 -74.23,0 -98.97,60.74 -98.97,128.22 0,85.48 38.24,155.21 132.72,155.21 80.98,0 166.46,-22.49 251.94,-22.49 92.23,0 182.21,22.49 278.93,22.49 94.48,0 132.72,-69.73 132.72,-155.21 0,-67.48 -24.74,-128.22 -98.97,-128.22 -13.5,0 -27,2.25 -40.5,6.75 -11.24,4.5 -22.49,9 -33.74,9 -17.99,0 -38.24,-18 -38.24,-157.47l0 -634.35c0,-80.98 -15.75,-114.72 -67.48,-114.72 -65.24,0 -130.47,22.49 -197.96,22.49 -60.73,0 -121.47,-22.49 -184.45,-22.49 -96.73,0 -134.97,69.73 -134.97,155.21 0,67.48 24.74,128.22 98.97,128.22 29.25,0 51.74,-15.75 74.24,-15.75 33.74,0 40.49,40.49 40.49,157.47l0 323.92zm170.96 -1261.96c-116.98,0 -211.45,94.48 -211.45,211.46 0,116.97 94.47,211.45 211.45,211.45 116.97,0 211.45,-94.48 211.45,-211.45 0,-116.98 -94.48,-211.46 -211.45,-211.46z"/>
   <path id="4" class="fil2" d="M7813.83 1343.69c0,-206.95 96.73,-314.92 224.95,-314.92 51.74,0 85.48,8.99 123.72,38.24 -15.75,22.49 -22.5,38.24 -22.5,67.48 0,103.48 87.73,146.22 179.96,146.22 114.73,0 211.45,-78.73 211.45,-197.96 0,-249.69 -260.94,-348.67 -470.14,-348.67 -384.66,0 -618.6,242.95 -618.6,625.36 0,159.71 56.23,337.42 170.96,452.14 116.97,114.73 269.93,159.72 429.65,159.72 132.72,0 263.19,-35.99 368.91,-119.22 83.23,-65.24 148.47,-164.22 148.47,-272.19 0,-103.48 -78.73,-166.46 -175.46,-166.46 -89.98,0 -116.97,24.74 -155.22,112.47 -35.99,85.48 -69.73,141.72 -173.21,141.72 -69.73,0 -146.21,-38.24 -186.7,-98.98 -40.49,-60.73 -56.24,-152.96 -56.24,-224.95z"/>
   <path id="5" class="fil2" d="M8826.1 1516.9c0,112.48 -9,157.47 -40.49,157.47 -11.25,0 -22.5,-6.75 -33.75,-9 -13.49,-2.25 -24.74,-6.75 -40.49,-6.75 -74.23,0 -98.97,60.74 -98.97,128.22 0,85.48 38.24,155.21 132.72,155.21 80.98,0 166.46,-22.49 251.94,-22.49 92.23,0 182.21,22.49 278.93,22.49 94.48,0 132.72,-69.73 132.72,-155.21 0,-67.48 -24.74,-128.22 -98.97,-128.22 -13.5,0 -27,2.25 -40.5,6.75 -11.24,4.5 -22.49,9 -33.74,9 -17.99,0 -38.24,-18 -38.24,-157.47l0 -634.35c0,-80.98 -15.75,-114.72 -67.48,-114.72 -65.24,0 -130.47,22.49 -197.96,22.49 -60.73,0 -121.47,-22.49 -184.45,-22.49 -96.73,0 -134.97,69.73 -134.97,155.21 0,67.48 24.74,128.22 98.97,128.22 29.25,0 51.74,-15.75 74.24,-15.75 33.74,0 40.49,40.49 40.49,157.47l0 323.92zm170.96 -1261.96c-116.98,0 -211.45,94.48 -211.45,211.46 0,116.97 94.47,211.45 211.45,211.45 116.97,0 211.45,-94.48 211.45,-211.45 0,-116.98 -94.48,-211.46 -211.45,-211.46z"/>
   <path id="6" class="fil2" d="M10342.24 1516.9c0,125.97 -2.25,157.47 -29.24,157.47 -6.75,0 -15.75,-4.5 -24.74,-9 -6.75,-2.25 -15.75,-6.75 -27,-6.75 -31.49,0 -69.73,26.99 -69.73,128.22 0,116.97 40.49,155.21 89.98,155.21 80.98,0 130.47,-22.49 215.95,-22.49 92.23,0 182.21,22.49 278.93,22.49 94.48,0 132.72,-69.73 132.72,-155.21 0,-67.48 -24.74,-128.22 -98.97,-128.22 -13.5,0 -27,2.25 -40.5,6.75 -11.24,4.5 -22.49,9 -33.74,9 -26.99,0 -40.49,-22.5 -40.49,-157.47l0 -380.16c0,-260.94 -184.46,-402.66 -382.41,-402.66 -161.96,0 -294.68,85.48 -391.41,206.96l-4.5 0 0 -56.24c0,-89.98 0,-116.97 -62.98,-116.97 -56.24,0 -96.73,22.49 -159.72,22.49 -76.48,0 -132.72,-22.49 -184.45,-22.49 -49.49,0 -87.73,69.73 -87.73,155.21 0,67.48 24.74,128.22 98.97,128.22 29.25,0 51.74,-15.75 74.24,-15.75 29.24,0 40.49,29.25 40.49,157.47l0 323.92c0,132.72 -9,157.47 -40.49,157.47 -11.25,0 -22.5,-6.75 -33.75,-9 -13.49,-2.25 -24.74,-6.75 -40.49,-6.75 -74.23,0 -98.97,60.74 -98.97,128.22 0,85.48 38.24,155.21 94.47,155.21 76.49,0 161.97,-22.49 247.45,-22.49 92.23,0 182.21,22.49 285.68,22.49 62.99,0 89.98,-69.73 89.98,-155.21 0,-94.48 -31.49,-128.22 -65.23,-128.22 -15.75,0 -24.75,2.25 -33.75,6.75 -8.99,4.5 -15.74,9 -24.74,9 -18,0 -26.99,-27 -26.99,-157.47l0 -215.95c0,-202.45 139.46,-251.94 213.7,-249.69 87.73,2.25 139.46,58.49 139.46,184.46l0 281.18z"/>
   <path id="7" class="fil2" d="M11422 1006.27c0,-44.99 35.99,-51.74 74.23,-51.74 74.23,0 152.96,40.49 152.96,125.97 0,296.56 -697.33,20.25 -697.33,553.38 0,229.44 195.7,337.42 400.4,337.42 141.72,0 278.94,-42.74 384.66,-143.97 38.25,105.73 152.97,143.97 256.45,143.97 105.72,0 231.69,-47.24 231.69,-173.21 0,-65.24 -40.49,-125.97 -112.47,-125.97 -18,0 -35.99,4.5 -53.99,4.5 -24.74,0 -38.24,-18 -38.24,-106.1l0 -422.53c0,-170.96 -24.75,-278.94 -143.97,-346.42 -98.97,-56.24 -251.94,-67.49 -364.41,-67.49 -346.42,0 -490.39,128.22 -490.39,269.94 0,114.73 96.73,193.46 206.95,193.46 94.48,0 193.46,-47.24 193.46,-150.72l0 -40.49zm227.19 469.39c0,133.47 -65.23,212.2 -197.95,212.2 -65.23,0 -128.22,-26.99 -128.22,-106.1 0,-119.59 260.94,-85.85 326.17,-155.21l0 49.11z"/>
   <path class="fil0" d="M1482.78 1140.21l424.47 0c2.13,-309.68 80.04,-584.2 274.01,-758.4 -24.83,-114.97 -127.08,-201.14 -249.49,-201.14l-448.99 0c-140.97,0 -255.28,114.31 -255.28,255.28l0 448.99c0,140.95 114.31,255.27 255.28,255.27z"/>
   <path class="fil0" d="M440.17 1136.75l448.98 0c140.97,0 255.26,-114.3 255.26,-255.27l0 -449c0,-140.99 -114.29,-255.27 -255.26,-255.27l-448.98 0c-140.97,0 -255.23,114.28 -255.23,255.27l0 449c0,140.97 114.26,255.27 255.23,255.27z"/>
   <path class="fil0" d="M440.25 2167.37l448.99 0c140.98,0 255.28,-114.27 255.28,-255.26l0 -448.98c0,-140.98 -114.3,-255.28 -255.28,-255.28l-448.99 0c-140.97,0 -255.27,114.3 -255.27,255.28l0 448.98c0,140.99 114.3,255.26 255.27,255.26z"/>
   <path class="fil2" d="M718.28 1529.32c-209.01,-250.02 -135.64,-566.71 109.86,-771.94 245.47,-205.21 570.17,-221.26 779.17,28.76 123.38,147.59 192.13,370.84 177.31,571.24l0.1 -0.07c-0.05,0.29 -0.1,0.6 -0.14,0.9 -1.89,25.14 -5.19,49.82 -9.76,74.03 -4.15,50.66 0.46,100.31 33.67,156.63 0.24,0.12 0.32,0.41 0.4,0.5 0.94,1.58 1.93,3.18 2.89,4.75l1.92 2.3c15.79,18.89 13.3,44.73 -5.59,57.7l-271.25 226.65c-14.72,10.14 -35,9.32 -50.74,-0.43l0 0c-1.53,-0.96 -3.06,-1.9 -4.51,-3.05 -0.11,-0.09 -0.23,-0.2 -0.32,-0.28 -0.75,-0.61 -1.43,-1.27 -2.14,-1.89 -1.94,-1.75 -3.87,-3.59 -5.86,-5.21 -0.07,-0.1 -0.34,-0.22 -0.41,-0.48 -48.16,-41.59 -94.88,-55.44 -143.86,-60.78 -222.53,3.56 -470.77,-111.88 -610.74,-279.33z"/>
   <path class="fil2" d="M1624.82 1968.41l253.88 -212.24c16.39,-13.69 17.81,-38.98 3.18,-56.48l-5.94 -7.09c-14.62,-17.51 -39.75,-20.6 -56.14,-6.89l-253.89 212.22c-16.39,13.71 -17.82,38.99 -3.19,56.5l5.95 7.11c14.63,17.48 39.76,20.55 56.15,6.87z"/>
   <path class="fil2" d="M1954.73 1847.11l-253.89 212.25c-16.38,13.68 -41.51,10.61 -56.14,-6.92l-5.95 -7.06c-14.63,-17.52 -13.2,-42.79 3.17,-56.49l253.91 -212.25c16.37,-13.68 41.51,-10.62 56.15,6.91l5.93 7.09c14.64,17.5 13.21,42.79 -3.18,56.47z"/>
   <path class="fil2" d="M1786.84 2013.64l11.35 13.58c16.88,20.22 45.91,23.75 64.81,7.96l39.17 -32.76c18.93,-15.8 20.58,-44.99 3.68,-65.2l-11.35 -13.56 -107.66 89.98z"/>
   <path class="fil2" d="M655.44 671.21c8.5,0.2 17.07,-2.95 23.56,-9.48 12.51,-12.6 12.45,-32.92 -0.14,-45.43l-113.52 -112.84c-12.55,-12.54 -32.91,-12.48 -45.44,0.12 -12.5,12.59 -12.47,32.94 0.13,45.45l113.54 112.83c6.03,6.04 13.92,9.15 21.87,9.35z"/>
   <path class="fil2" d="M991.75 497.75c1.93,0.05 3.94,-0.09 5.93,-0.41 17.52,-2.84 29.44,-19.32 26.63,-36.86l-25.5 -157.88c-2.84,-17.5 -19.3,-29.34 -36.85,-26.61 -17.49,2.85 -29.41,19.35 -26.62,36.86l25.49 157.9c2.52,15.51 15.75,26.62 30.92,27z"/>
   <path class="fil2" d="M1492.03 536.12c12.01,0.28 23.72,-6.2 29.51,-17.65l72.02 -142.43c8.01,-15.83 1.67,-35.16 -14.16,-43.18 -15.86,-8.03 -35.18,-1.65 -43.18,14.17l-72.06 142.45c-8,15.83 -1.66,35.16 14.2,43.18 4.38,2.24 9.07,3.34 13.67,3.46z"/>
   <path class="fil2" d="M771.73 1965.81c12.23,0.3 24.04,-6.39 29.73,-18.08l69.59 -143.06c7.75,-15.97 1.1,-35.19 -14.85,-42.95 -15.95,-7.75 -35.18,-1.11 -42.96,14.84l-69.57 143.06c-7.78,15.94 -1.12,35.21 14.82,42.94 4.29,2.1 8.79,3.14 13.24,3.25z"/>
   <path class="fil2" d="M379.27 1583.64c5.18,0.12 10.49,-0.99 15.41,-3.53l146.14 -75.01c15.79,-8.09 22.01,-27.47 13.91,-43.25 -8.09,-15.8 -27.47,-22.04 -43.25,-13.92l-146.11 75.01c-15.82,8.11 -22.04,27.49 -13.94,43.25 5.58,10.84 16.44,17.17 27.84,17.45z"/>
   <path class="fil2" d="M1748.08 810.24c4.96,0.12 9.98,-0.93 14.75,-3.22l143.25 -69.21c15.98,-7.72 22.68,-26.92 14.95,-42.9 -7.72,-16 -26.92,-22.68 -42.92,-14.96l-143.25 69.21c-15.96,7.72 -22.68,26.92 -14.96,42.92 5.44,11.2 16.54,17.87 28.18,18.16z"/>
   <path class="fil2" d="M484.37 1018.79c15.91,0.4 29.99,-11.06 32.52,-27.19 2.73,-17.54 -9.32,-33.98 -26.84,-36.7l-157.99 -24.53c-17.61,-2.67 -33.95,9.27 -36.69,26.81 -2.7,17.54 9.29,33.98 26.83,36.71l157.99 24.55c1.41,0.2 2.8,0.32 4.18,0.35z"/>
   <path class="fil2" d="M1626.62 1806.93c-132.18,-161.89 -298.96,-293.26 -488.6,-381.56 -21.81,-10.18 -53.26,-28.9 -78.58,-25.81 -31.66,3.86 -26.46,32.3 0.17,40.29 46.16,13.84 112.15,-28.39 150.74,-50.94 92.24,-53.92 170.99,-131.14 230.86,-219.28 23.18,-34.08 78.03,-0.56 54.69,33.79 -59.32,87.33 -134.52,163.35 -222.58,221.8 -70.5,46.83 -208.9,128.75 -280.9,44.47 -28.26,-33.1 -27.51,-81.89 5.63,-111.27 39.48,-35.01 93.63,-23.15 137.3,-4.27 97.81,42.35 190.76,96.12 276.43,159.51 97.14,71.88 184.98,155.34 261.39,248.94 26.03,31.89 -20.34,76.46 -46.55,44.33l0 0z"/>
   <path class="fil2" d="M1665.88 1774.47c-140.39,-167.53 -243.03,-365.1 -296.14,-577.35 -11.96,-47.71 -26.11,-103.03 5.35,-146.41 25.85,-35.6 72.76,-46.24 109.45,-20.33 96.73,68.38 -0.08,196.42 -53.49,258.06 -75.64,87.29 -174.3,156.03 -280.04,201.78 -37.71,16.29 -69.03,-39.86 -31.07,-56.29 91.92,-39.73 176.33,-96.2 245.59,-168.78 34.84,-36.49 79.66,-86.1 92.78,-136.34 3.74,-14.29 1.28,-57.9 -24.71,-47.27 -25.66,10.49 -10.8,60.73 -6.63,78.81 48.52,209.19 147.61,405.32 285.45,569.8 26.46,31.59 -19.92,76.11 -46.54,44.32l0 0z"/>
   <path class="fil0" d="M4494.05 2117.26l7478.77 0c60.22,0 109.48,35.89 109.48,79.76l0 0.01c0,43.87 -49.26,79.76 -109.48,79.76l-7492.78 0c16.53,-24.95 26.75,-53.14 28.69,-82.98 1.77,-27.31 -3.57,-53.22 -14.68,-76.55z"/>
   <path class="fil0" d="M2395.05 2117.26l1112.58 0c-11.73,23.33 -17.36,49.24 -15.49,76.55 2.04,29.84 12.84,58.03 30.28,82.98l-1127.37 0c-63.57,0 -115.57,-35.89 -115.57,-79.76l0 -0.01c0,-43.87 52,-79.76 115.57,-79.76z"/>
  </g>
  <path class="fil3" d="M1939.68 2157.65l0.24 0 5.53 -0.07c130.64,-2.78 237.09,-103.69 248.67,-231.98l-0.91 -1.53c0.6,-7.14 0.92,-14.37 0.92,-21.67l0 -0.61c-177.93,-166.41 -262.59,-418.93 -272.46,-703.68l-430.74 0 -1.07 0c-30.6,0 -59.94,5.39 -87.12,15.26l0.01 0.39c-97.53,35.9 -167.09,129.63 -167.09,239.62l0 449.02c0,7.3 0.32,14.53 0.92,21.67l-0.92 1.54c11.73,130.09 121.05,232.05 254.2,232.05l449 0 0.82 -0.01z"/>
  <path class="fil4" d="M3834.71 1895.84c0,125.97 -13.5,157.47 -40.49,157.47 -11.25,0 -22.5,-4.5 -33.75,-9 -13.49,-2.25 -24.74,-6.75 -40.49,-6.75 -65.23,0 -98.97,53.99 -98.97,128.22 0,85.48 38.24,155.21 121.47,155.21 76.48,0 161.96,-22.49 247.44,-22.49 92.23,0 182.21,22.49 278.94,22.49 94.47,0 132.72,-69.73 132.72,-155.21 0,-67.48 -24.75,-128.22 -98.98,-128.22 -13.5,0 -26.99,4.5 -40.49,6.75 -11.25,4.5 -22.5,9 -33.74,9 -29.25,0 -40.49,-29.25 -40.49,-157.47l0 -71.98c89.97,67.48 164.21,137.22 285.68,137.22 355.42,0 490.39,-323.93 490.39,-636.6 0,-141.72 -36,-305.93 -119.23,-422.91 -89.98,-125.97 -213.7,-177.71 -368.91,-177.71 -150.72,0 -269.94,69.74 -353.17,188.96l-4.5 0 0 -38.24c0,-76.48 -9,-116.97 -69.73,-116.97 -56.24,0 -107.98,22.49 -159.72,22.49 -49.48,0 -98.97,-22.49 -141.71,-22.49 -87.73,0 -125.97,69.73 -125.97,155.21 0,67.48 24.74,128.22 98.97,128.22 29.25,0 51.74,-15.75 74.24,-15.75 26.99,0 40.49,29.25 40.49,157.47l0 713.08zm544.37 -249.69c-101.23,0 -191.2,-96.73 -191.2,-310.43 0,-195.7 78.73,-310.43 188.95,-310.43 112.48,0 215.95,89.98 215.95,310.43 0,224.95 -105.72,310.43 -213.7,310.43z"/>
  <path id="1" class="fil4" d="M5276.63 1506.68c0,121.47 -11.25,157.47 -42.74,157.47 -11.25,0 -24.75,-4.5 -36,-9 -11.24,-2.25 -24.74,-6.75 -38.24,-6.75 -74.23,0 -98.97,60.74 -98.97,128.22 0,85.48 38.24,155.21 98.97,155.21 76.49,0 161.97,-22.49 247.45,-22.49 92.22,0 182.2,22.49 278.93,22.49 60.74,0 85.48,-69.73 85.48,-155.21 0,-67.48 -15.74,-128.22 -65.23,-128.22 -9,0 -15.75,4.5 -22.5,6.75 -6.75,4.5 -15.74,9 -26.99,9 -18,0 -27,-20.25 -27,-157.47l0 -233.94c0,-132.72 74.24,-242.95 202.46,-242.95 130.47,0 150.71,80.98 150.71,222.7l0 254.19c0,114.73 2.25,157.47 -24.74,157.47 -6.75,0 -15.75,-4.5 -24.75,-9 -6.74,-2.25 -15.74,-6.75 -24.74,-6.75 -49.49,0 -65.23,60.74 -65.23,128.22 0,85.48 24.74,155.21 85.48,155.21 71.98,0 150.71,-22.49 229.44,-22.49 85.48,0 168.71,22.49 258.69,22.49 94.48,0 132.72,-69.73 132.72,-155.21 0,-67.48 -24.74,-128.22 -98.97,-128.22 -13.5,0 -24.75,4.5 -38.25,6.75 -11.24,4.5 -22.49,9 -35.99,9 -26.99,0 -40.49,-20.25 -40.49,-157.47l0 -431.9c0,-202.45 -116.97,-350.92 -357.67,-350.92 -159.71,0 -231.69,44.99 -348.67,143.97l0 -393.66c0,-87.73 -20.24,-107.97 -60.73,-107.97 -65.24,0 -130.47,22.49 -197.96,22.49 -60.73,0 -121.47,-22.49 -179.95,-22.49 -92.23,0 -130.47,69.73 -130.47,155.21 0,67.49 24.74,128.22 98.97,128.22 29.25,0 51.74,-15.75 74.24,-15.75 35.99,0 42.74,40.5 42.74,157.47l0 715.33z"/>
  <path id="2" class="fil4" d="M6804.03 1506.68c0,112.48 -9,157.47 -40.49,157.47 -11.25,0 -22.5,-6.75 -33.75,-9 -13.49,-2.25 -24.74,-6.75 -40.49,-6.75 -74.23,0 -98.97,60.74 -98.97,128.22 0,85.48 38.24,155.21 132.72,155.21 80.98,0 166.46,-22.49 251.94,-22.49 92.23,0 182.21,22.49 278.93,22.49 94.48,0 132.72,-69.73 132.72,-155.21 0,-67.48 -24.74,-128.22 -98.97,-128.22 -13.5,0 -27,2.25 -40.5,6.75 -11.24,4.5 -22.49,9 -33.74,9 -17.99,0 -38.24,-18 -38.24,-157.47l0 -634.35c0,-80.98 -15.75,-114.72 -67.48,-114.72 -65.24,0 -130.47,22.49 -197.96,22.49 -60.73,0 -121.47,-22.49 -184.45,-22.49 -96.73,0 -134.97,69.73 -134.97,155.21 0,67.48 24.74,128.22 98.97,128.22 29.25,0 51.74,-15.75 74.24,-15.75 33.74,0 40.49,40.49 40.49,157.47l0 323.92zm170.96 -1261.96c-116.98,0 -211.45,94.48 -211.45,211.46 0,116.97 94.47,211.45 211.45,211.45 116.97,0 211.45,-94.48 211.45,-211.45 0,-116.98 -94.48,-211.46 -211.45,-211.46z"/>
  <path id="3" class="fil4" d="M7816.29 1333.47c0,-206.95 96.73,-314.92 224.95,-314.92 51.74,0 85.48,8.99 123.72,38.24 -15.75,22.49 -22.5,38.24 -22.5,67.48 0,103.48 87.73,146.22 179.96,146.22 114.73,0 211.45,-78.73 211.45,-197.96 0,-249.69 -260.94,-348.67 -470.14,-348.67 -384.66,0 -618.6,242.95 -618.6,625.36 0,159.71 56.23,337.42 170.96,452.14 116.97,114.73 269.93,159.72 429.65,159.72 132.72,0 263.19,-35.99 368.91,-119.22 83.23,-65.24 148.47,-164.22 148.47,-272.19 0,-103.48 -78.73,-166.46 -175.46,-166.46 -89.98,0 -116.97,24.74 -155.22,112.47 -35.99,85.48 -69.73,141.72 -173.21,141.72 -69.73,0 -146.21,-38.24 -186.7,-98.98 -40.49,-60.73 -56.24,-152.96 -56.24,-224.95z"/>
  <path id="4" class="fil4" d="M8828.56 1506.68c0,112.48 -9,157.47 -40.49,157.47 -11.25,0 -22.5,-6.75 -33.75,-9 -13.49,-2.25 -24.74,-6.75 -40.49,-6.75 -74.23,0 -98.97,60.74 -98.97,128.22 0,85.48 38.24,155.21 132.72,155.21 80.98,0 166.46,-22.49 251.94,-22.49 92.23,0 182.21,22.49 278.93,22.49 94.48,0 132.72,-69.73 132.72,-155.21 0,-67.48 -24.74,-128.22 -98.97,-128.22 -13.5,0 -27,2.25 -40.5,6.75 -11.24,4.5 -22.49,9 -33.74,9 -17.99,0 -38.24,-18 -38.24,-157.47l0 -634.35c0,-80.98 -15.75,-114.72 -67.48,-114.72 -65.24,0 -130.47,22.49 -197.96,22.49 -60.73,0 -121.47,-22.49 -184.45,-22.49 -96.73,0 -134.97,69.73 -134.97,155.21 0,67.48 24.74,128.22 98.97,128.22 29.25,0 51.74,-15.75 74.24,-15.75 33.74,0 40.49,40.49 40.49,157.47l0 323.92zm170.96 -1261.96c-116.98,0 -211.45,94.48 -211.45,211.46 0,116.97 94.47,211.45 211.45,211.45 116.97,0 211.45,-94.48 211.45,-211.45 0,-116.98 -94.48,-211.46 -211.45,-211.46z"/>
  <path id="5" class="fil4" d="M10344.7 1506.68c0,125.97 -2.25,157.47 -29.24,157.47 -6.75,0 -15.75,-4.5 -24.74,-9 -6.75,-2.25 -15.75,-6.75 -27,-6.75 -31.49,0 -69.73,26.99 -69.73,128.22 0,116.97 40.49,155.21 89.98,155.21 80.98,0 130.47,-22.49 215.95,-22.49 92.23,0 182.21,22.49 278.93,22.49 94.48,0 132.72,-69.73 132.72,-155.21 0,-67.48 -24.74,-128.22 -98.97,-128.22 -13.5,0 -27,2.25 -40.5,6.75 -11.24,4.5 -22.49,9 -33.74,9 -26.99,0 -40.49,-22.5 -40.49,-157.47l0 -380.16c0,-260.94 -184.46,-402.66 -382.41,-402.66 -161.96,0 -294.68,85.48 -391.41,206.96l-4.5 0 0 -56.24c0,-89.98 0,-116.97 -62.98,-116.97 -56.24,0 -96.73,22.49 -159.72,22.49 -76.48,0 -132.72,-22.49 -184.45,-22.49 -49.49,0 -87.73,69.73 -87.73,155.21 0,67.48 24.74,128.22 98.97,128.22 29.25,0 51.74,-15.75 74.24,-15.75 29.24,0 40.49,29.25 40.49,157.47l0 323.92c0,132.72 -9,157.47 -40.49,157.47 -11.25,0 -22.5,-6.75 -33.75,-9 -13.49,-2.25 -24.74,-6.75 -40.49,-6.75 -74.23,0 -98.97,60.74 -98.97,128.22 0,85.48 38.24,155.21 94.47,155.21 76.49,0 161.97,-22.49 247.45,-22.49 92.23,0 182.21,22.49 285.68,22.49 62.99,0 89.98,-69.73 89.98,-155.21 0,-94.48 -31.49,-128.22 -65.23,-128.22 -15.75,0 -24.75,2.25 -33.75,6.75 -8.99,4.5 -15.74,9 -24.74,9 -18,0 -26.99,-27 -26.99,-157.47l0 -215.95c0,-202.45 139.46,-251.94 213.7,-249.69 87.73,2.25 139.46,58.49 139.46,184.46l0 281.18z"/>
  <path id="6" class="fil4" d="M11424.46 996.05c0,-44.99 35.99,-51.74 74.23,-51.74 74.23,0 152.96,40.49 152.96,125.97 0,296.56 -697.33,20.25 -697.33,553.38 0,229.44 195.7,337.42 400.4,337.42 141.72,0 278.94,-42.74 384.66,-143.97 38.25,105.73 152.97,143.97 256.45,143.97 105.72,0 231.69,-47.24 231.69,-173.21 0,-65.24 -40.49,-125.97 -112.47,-125.97 -18,0 -35.99,4.5 -53.99,4.5 -24.74,0 -38.24,-18 -38.24,-106.1l0 -422.53c0,-170.96 -24.75,-278.94 -143.97,-346.42 -98.97,-56.24 -251.94,-67.49 -364.41,-67.49 -346.42,0 -490.39,128.22 -490.39,269.94 0,114.73 96.73,193.46 206.95,193.46 94.48,0 193.46,-47.24 193.46,-150.72l0 -40.49zm227.19 469.39c0,133.47 -65.23,212.2 -197.95,212.2 -65.23,0 -128.22,-26.99 -128.22,-106.1 0,-119.59 260.94,-85.85 326.17,-155.21l0 49.11z"/>
  <path class="fil5" d="M1496.26 1127.78l424.47 0c2.13,-309.68 80.04,-584.2 274.01,-758.4 -24.83,-114.97 -127.08,-201.14 -249.49,-201.14l-448.99 0c-140.97,0 -255.28,114.31 -255.28,255.28l0 448.99c0,140.95 114.31,255.27 255.28,255.27z"/>
  <path class="fil6" d="M453.65 1124.32l448.98 0c140.97,0 255.26,-114.3 255.26,-255.27l0 -449c0,-140.99 -114.29,-255.27 -255.26,-255.27l-448.98 0c-140.97,0 -255.23,114.28 -255.23,255.27l0 449c0,140.97 114.26,255.27 255.23,255.27z"/>
  <path class="fil7" d="M453.73 2154.94l448.99 0c140.98,0 255.28,-114.27 255.28,-255.26l0 -448.98c0,-140.98 -114.3,-255.28 -255.28,-255.28l-448.99 0c-140.97,0 -255.27,114.3 -255.27,255.28l0 448.98c0,140.99 114.3,255.26 255.27,255.26z"/>
  <path class="fil8" d="M731.76 1516.89c-209.01,-250.02 -135.64,-566.71 109.86,-771.94 245.47,-205.21 570.17,-221.26 779.17,28.76 123.38,147.59 192.13,370.84 177.31,571.24l0.1 -0.07c-0.05,0.29 -0.1,0.6 -0.14,0.9 -1.89,25.14 -5.19,49.82 -9.76,74.03 -4.15,50.66 0.46,100.31 33.67,156.63 0.24,0.12 0.32,0.41 0.4,0.5 0.94,1.58 1.93,3.18 2.89,4.75l1.92 2.3c15.79,18.89 13.3,44.73 -5.59,57.7l-271.25 226.65c-14.72,10.14 -35,9.32 -50.74,-0.43l0 0c-1.53,-0.96 -3.06,-1.9 -4.51,-3.05 -0.11,-0.09 -0.23,-0.2 -0.32,-0.28 -0.75,-0.61 -1.43,-1.27 -2.14,-1.89 -1.94,-1.75 -3.87,-3.59 -5.86,-5.21 -0.07,-0.1 -0.34,-0.22 -0.41,-0.48 -48.16,-41.59 -94.88,-55.44 -143.86,-60.78 -222.53,3.56 -470.77,-111.88 -610.74,-279.33z"/>
  <path class="fil8" d="M1638.3 1955.98l253.88 -212.24c16.39,-13.69 17.81,-38.98 3.18,-56.48l-5.94 -7.09c-14.62,-17.51 -39.75,-20.6 -56.14,-6.89l-253.89 212.22c-16.39,13.71 -17.82,38.99 -3.19,56.5l5.95 7.11c14.63,17.48 39.76,20.55 56.15,6.87z"/>
  <path class="fil8" d="M1968.21 1834.68l-253.89 212.25c-16.38,13.68 -41.51,10.61 -56.14,-6.92l-5.95 -7.06c-14.63,-17.52 -13.2,-42.79 3.17,-56.49l253.91 -212.25c16.37,-13.68 41.51,-10.62 56.15,6.91l5.93 7.09c14.64,17.5 13.21,42.79 -3.18,56.47z"/>
  <path class="fil8" d="M1800.32 2001.21l11.35 13.58c16.88,20.22 45.91,23.75 64.81,7.96l39.17 -32.76c18.93,-15.8 20.58,-44.99 3.68,-65.2l-11.35 -13.56 -107.66 89.98z"/>
  <path class="fil8" d="M668.92 658.78c8.5,0.2 17.07,-2.95 23.56,-9.48 12.51,-12.6 12.45,-32.92 -0.14,-45.43l-113.52 -112.84c-12.55,-12.54 -32.91,-12.48 -45.44,0.12 -12.5,12.59 -12.47,32.94 0.13,45.45l113.54 112.83c6.03,6.04 13.92,9.15 21.87,9.35z"/>
  <path class="fil8" d="M1005.23 485.32c1.93,0.05 3.94,-0.09 5.93,-0.41 17.52,-2.84 29.44,-19.32 26.63,-36.86l-25.5 -157.88c-2.84,-17.5 -19.3,-29.34 -36.85,-26.61 -17.49,2.85 -29.41,19.35 -26.62,36.86l25.49 157.9c2.52,15.51 15.75,26.62 30.92,27z"/>
  <path class="fil8" d="M1505.51 523.69c12.01,0.28 23.72,-6.2 29.51,-17.65l72.02 -142.43c8.01,-15.83 1.67,-35.16 -14.16,-43.18 -15.86,-8.03 -35.18,-1.65 -43.18,14.17l-72.06 142.45c-8,15.83 -1.66,35.16 14.2,43.18 4.38,2.24 9.07,3.34 13.67,3.46z"/>
  <path class="fil8" d="M785.21 1953.38c12.23,0.3 24.04,-6.39 29.73,-18.08l69.59 -143.06c7.75,-15.97 1.1,-35.19 -14.85,-42.95 -15.95,-7.75 -35.18,-1.11 -42.96,14.84l-69.57 143.06c-7.78,15.94 -1.12,35.21 14.82,42.94 4.29,2.1 8.79,3.14 13.24,3.25z"/>
  <path class="fil8" d="M392.75 1571.21c5.18,0.12 10.49,-0.99 15.41,-3.53l146.14 -75.01c15.79,-8.09 22.01,-27.47 13.91,-43.25 -8.09,-15.8 -27.47,-22.04 -43.25,-13.92l-146.11 75.01c-15.82,8.11 -22.04,27.49 -13.94,43.25 5.58,10.84 16.44,17.17 27.84,17.45z"/>
  <path class="fil8" d="M1761.56 797.81c4.96,0.12 9.98,-0.93 14.75,-3.22l143.25 -69.21c15.98,-7.72 22.68,-26.92 14.95,-42.9 -7.72,-16 -26.92,-22.68 -42.92,-14.96l-143.25 69.21c-15.96,7.72 -22.68,26.92 -14.96,42.92 5.44,11.2 16.54,17.87 28.18,18.16z"/>
  <path class="fil8" d="M497.85 1006.36c15.91,0.4 29.99,-11.06 32.52,-27.19 2.73,-17.54 -9.32,-33.98 -26.84,-36.7l-157.99 -24.53c-17.61,-2.67 -33.95,9.27 -36.69,26.81 -2.7,17.54 9.29,33.98 26.83,36.71l157.99 24.55c1.41,0.2 2.8,0.32 4.18,0.35z"/>
  <path class="fil9" d="M1640.1 1794.5c-132.18,-161.89 -298.96,-293.26 -488.6,-381.56 -21.81,-10.18 -53.26,-28.9 -78.58,-25.81 -31.66,3.86 -26.46,32.3 0.17,40.29 46.16,13.84 112.15,-28.39 150.74,-50.94 92.24,-53.92 170.99,-131.14 230.86,-219.28 23.18,-34.08 78.03,-0.56 54.69,33.79 -59.32,87.33 -134.52,163.35 -222.58,221.8 -70.5,46.83 -208.9,128.75 -280.9,44.47 -28.26,-33.1 -27.51,-81.89 5.63,-111.27 39.48,-35.01 93.63,-23.15 137.3,-4.27 97.81,42.35 190.76,96.12 276.43,159.51 97.14,71.88 184.98,155.34 261.39,248.94 26.03,31.89 -20.34,76.46 -46.55,44.33l0 0z"/>
  <path class="fil9" d="M1679.36 1762.04c-140.39,-167.53 -243.03,-365.1 -296.14,-577.35 -11.96,-47.71 -26.11,-103.03 5.35,-146.41 25.85,-35.6 72.76,-46.24 109.45,-20.33 96.73,68.38 -0.08,196.42 -53.49,258.06 -75.64,87.29 -174.3,156.03 -280.04,201.78 -37.71,16.29 -69.03,-39.86 -31.07,-56.29 91.92,-39.73 176.33,-96.2 245.59,-168.78 34.84,-36.49 79.66,-86.1 92.78,-136.34 3.74,-14.29 1.28,-57.9 -24.71,-47.27 -25.66,10.49 -10.8,60.73 -6.63,78.81 48.52,209.19 147.61,405.32 285.45,569.8 26.46,31.59 -19.92,76.11 -46.54,44.32l0 0z"/>
  <path class="fil10" d="M4507.53 2104.83l7478.77 0c60.22,0 109.48,35.89 109.48,79.76l0 0.01c0,43.87 -49.26,79.76 -109.48,79.76l-7492.78 0c16.53,-24.95 26.75,-53.14 28.69,-82.98 1.77,-27.31 -3.57,-53.22 -14.68,-76.55z"/>
  <path class="fil11" d="M2408.53 2104.83l1112.58 0c-11.73,23.33 -17.36,49.24 -15.49,76.55 2.04,29.84 12.84,58.03 30.28,82.98l-1127.37 0c-63.57,0 -115.57,-35.89 -115.57,-79.76l0 -0.01c0,-43.87 52,-79.76 115.57,-79.76z"/>
  <path class="fil12" d="M2778.73 335.78c-209.2,0 -431.9,78.74 -560.12,249.7 -114.73,152.96 -157.47,371.16 -157.47,557.87 0,197.95 49.49,440.9 177.71,593.86 141.72,168.71 348.67,224.95 560.12,224.95 213.7,0 434.15,-78.73 564.62,-251.94 114.73,-152.97 159.72,-375.67 159.72,-564.62 0,-202.46 -56.24,-429.65 -188.96,-587.12 -141.72,-168.71 -344.17,-222.7 -555.62,-222.7zm13.5 1302.45c-204.71,0 -299.19,-137.22 -299.19,-490.38 0,-402.66 139.47,-488.14 303.68,-488.14 195.71,0 294.69,139.47 294.69,501.63 0,330.68 -94.48,476.89 -299.18,476.89z"/>
  <ellipse class="fil0" cx="5801.24" cy="1321.15" rx="165.19" ry="274.5"/>
  <ellipse class="fil0" cx="7510.99" cy="1893.4" rx="109.14" ry="128.98"/>
 </g>
</svg>
